<svg xmlns="http://www.w3.org/2000/svg" id="canvas" viewBox="271.817 520.395 1268.427 196.321"><path d="M 398.91,526.16 C 398.31 525.32, 397.46 524.70, 395.45 524.17 C 393.44 523.64, 392.13 523.17, 388.87 523.51 C 385.61 523.85, 383.46 524.24, 379.17 525.87 C 374.88 527.50, 372.71 528.75, 367.42 531.68 C 362.12 534.60, 359.04 536.21, 352.69 540.49 C 346.34 544.77, 342.76 547.11, 335.66 553.09 C 328.55 559.06, 324.28 562.72, 317.15 570.36 C 310.02 577.99, 306.16 582.61, 299.99 591.26 C 293.82 599.91, 290.81 604.88, 286.30 613.61 C 281.78 622.35, 279.70 627.00, 277.41 634.94 C 275.12 642.89, 274.68 646.85, 274.85 653.34 C 275.01 659.82, 275.75 662.88, 278.24 667.37 C 280.73 671.87, 282.75 673.56, 287.29 675.79 C 291.83 678.03, 294.95 678.45, 300.93 678.55 C 306.91 678.65, 310.26 678.06, 317.18 676.30 C 324.11 674.54, 328.00 672.97, 335.56 669.75 C 343.11 666.53, 347.33 664.40, 354.95 660.19 C 362.58 655.98, 366.43 653.38, 373.69 648.71 C 380.95 644.03, 384.65 641.36, 391.26 636.81 C 397.88 632.25, 401.19 629.77, 406.76 625.94 C 412.34 622.11, 414.93 620.35, 419.12 617.67 C 423.31 614.99, 425.16 614.33, 427.73 612.54 C 430.29 610.75, 431.32 609.89, 431.94 608.72 C 432.56 607.55, 432.09 606.87, 430.84 606.70 C 429.59 606.53, 428.07 606.53, 425.69 607.88 C 423.31 609.23, 422.02 610.70, 418.95 613.46 C 415.88 616.22, 413.88 618.14, 410.34 621.70 C 406.79 625.25, 404.50 627.31, 401.23 631.24 C 397.96 635.17, 396.38 637.35, 393.99 641.34 C 391.60 645.33, 390.49 647.45, 389.28 651.18 C 388.07 654.92, 387.66 656.78, 387.95 660.04 C 388.23 663.29, 389.01 665.06, 390.70 667.44 C 392.40 669.82, 393.74 670.78, 396.43 671.93 C 399.11 673.08, 401.00 673.47, 404.12 673.20 C 407.25 672.92, 408.93 672.20, 412.06 670.55 C 415.19 668.91, 416.87 667.67, 419.78 664.96 C 422.70 662.25, 424.18 660.52, 426.63 657.02 C 429.09 653.51, 430.33 651.45, 432.07 647.45 C 433.81 643.44, 434.47 641.19, 435.35 636.97 C 436.23 632.76, 436.44 630.37, 436.48 626.36 C 436.52 622.35, 436.28 620.34, 435.55 616.91 C 434.83 613.49, 434.22 611.80, 432.86 609.23 C 431.49 606.67, 430.39 605.41, 428.73 604.10 C 427.08 602.79, 425.94 602.55, 424.59 602.69 C 423.24 602.84, 422.36 603.52, 421.99 604.81 C 421.62 606.11, 421.63 607.48, 422.74 609.17 C 423.85 610.86, 424.90 612.10, 427.54 613.27 C 430.18 614.45, 432.18 614.79, 435.94 615.03 C 439.71 615.28, 441.82 615.28, 446.37 614.49 C 450.92 613.70, 453.41 612.97, 458.67 611.09 C 463.92 609.22, 466.90 608.16, 472.65 605.13 C 478.40 602.10, 481.42 600.07, 487.41 595.93 C 493.40 591.80, 496.70 589.27, 502.61 584.45 C 508.52 579.63, 511.73 576.83, 516.95 571.82 C 522.18 566.82, 524.63 564.15, 528.74 559.42 C 532.84 554.70, 534.73 552.26, 537.47 548.21 C 540.20 544.15, 541.45 542.28, 542.43 539.16 C 543.41 536.04, 543.20 534.47, 542.37 532.61 C 541.54 530.75, 540.52 529.86, 538.27 529.85 C 536.02 529.84, 534.16 530.15, 531.12 532.55 C 528.09 534.96, 526.47 537.07, 523.09 541.88 C 519.72 546.68, 517.95 549.70, 514.24 556.58 C 510.53 563.45, 508.41 567.67, 504.52 576.24 C 500.63 584.80, 498.55 589.90, 494.80 599.40 C 491.06 608.90, 489.15 614.09, 485.80 623.74 C 482.45 633.39, 480.93 638.45, 478.05 647.64 C 475.17 656.84, 473.87 661.53, 471.40 669.73 C 468.93 677.92, 467.78 682.03, 465.70 688.61 C 463.61 695.20, 462.57 698.15, 460.97 702.64 C 459.38 707.13, 458.57 709.02, 457.70 711.08 C 456.84 713.13, 456.76 712.43, 456.64 712.94 C 456.53 713.44, 456.42 713.70, 457.13 713.59 C 457.84 713.49, 458.88 714.41, 460.19 712.41 C 461.50 710.40, 462.17 708.20, 463.69 703.57 C 465.20 698.93, 465.87 695.90, 467.77 689.24 C 469.66 682.57, 470.78 678.46, 473.16 670.24 C 475.54 662.03, 476.81 657.33, 479.65 648.14 C 482.49 638.95, 484.00 633.90, 487.35 624.28 C 490.71 614.66, 492.62 609.49, 496.41 600.04 C 500.20 590.60, 502.31 585.52, 506.30 577.06 C 510.29 568.60, 512.46 564.40, 516.35 557.76 C 520.23 551.12, 522.21 548.21, 525.73 543.87 C 529.26 539.54, 531.36 538.23, 533.97 536.08 C 536.58 533.94, 537.62 533.70, 538.79 533.15 C 539.96 532.60, 539.85 532.39, 539.81 533.33 C 539.78 534.28, 539.60 535.21, 538.61 537.86 C 537.63 540.51, 537.26 542.59, 534.90 546.58 C 532.54 550.56, 530.72 553.07, 526.81 557.79 C 522.90 562.51, 520.48 565.18, 515.35 570.16 C 510.22 575.14, 507.03 577.92, 501.17 582.68 C 495.31 587.43, 492.00 589.93, 486.05 593.94 C 480.10 597.95, 477.09 599.89, 471.41 602.71 C 465.73 605.54, 462.77 606.48, 457.66 608.05 C 452.55 609.62, 450.06 610.19, 445.85 610.55 C 441.65 610.91, 439.75 610.54, 436.64 609.85 C 433.54 609.17, 432.34 608.06, 430.34 607.13 C 428.33 606.19, 427.81 605.70, 426.63 605.16 C 425.45 604.63, 424.98 604.41, 424.42 604.44 C 423.85 604.46, 423.62 604.69, 423.80 605.29 C 423.98 605.90, 424.41 606.17, 425.30 607.46 C 426.19 608.74, 427.08 609.61, 428.24 611.72 C 429.39 613.83, 430.26 615.07, 431.07 618.00 C 431.89 620.93, 432.24 622.74, 432.32 626.38 C 432.40 630.02, 432.25 632.29, 431.48 636.18 C 430.70 640.08, 430.10 642.17, 428.45 645.85 C 426.80 649.52, 425.58 651.42, 423.23 654.56 C 420.89 657.70, 419.44 659.26, 416.74 661.54 C 414.05 663.82, 412.39 664.73, 409.76 665.97 C 407.13 667.22, 405.89 667.49, 403.58 667.76 C 401.28 668.02, 400.06 667.90, 398.22 667.30 C 396.38 666.70, 395.53 666.31, 394.39 664.77 C 393.25 663.23, 392.78 662.09, 392.52 659.60 C 392.25 657.11, 392.15 655.61, 393.07 652.33 C 393.98 649.04, 394.91 646.92, 397.08 643.17 C 399.26 639.41, 400.76 637.26, 403.95 633.54 C 407.15 629.82, 409.40 627.79, 413.05 624.58 C 416.70 621.37, 418.96 619.84, 422.21 617.49 C 425.46 615.15, 427.31 614.66, 429.29 612.87 C 431.27 611.08, 431.84 609.76, 432.11 608.55 C 432.38 607.33, 431.97 606.64, 430.64 606.78 C 429.32 606.91, 428.11 607.50, 425.49 609.22 C 422.86 610.93, 421.53 612.38, 417.52 615.35 C 413.51 618.32, 410.93 620.11, 405.45 624.07 C 399.96 628.03, 396.67 630.54, 390.11 635.15 C 383.55 639.75, 379.87 642.42, 372.64 647.08 C 365.42 651.74, 361.58 654.31, 354.00 658.45 C 346.41 662.58, 342.20 664.66, 334.72 667.76 C 327.24 670.86, 323.35 672.31, 316.60 673.94 C 309.85 675.56, 306.61 675.99, 300.98 675.87 C 295.36 675.75, 292.59 675.29, 288.47 673.34 C 284.36 671.40, 282.71 670.17, 280.41 666.15 C 278.11 662.14, 277.24 659.41, 276.99 653.27 C 276.74 647.12, 277.02 643.22, 279.18 635.44 C 281.34 627.67, 283.35 623.02, 287.78 614.38 C 292.21 605.73, 295.19 600.77, 301.32 592.20 C 307.44 583.63, 311.28 579.05, 318.40 571.53 C 325.51 564.00, 329.78 560.39, 336.89 554.58 C 344.00 548.76, 347.58 546.49, 353.96 542.44 C 360.34 538.39, 363.50 536.88, 368.79 534.34 C 374.08 531.80, 376.30 530.79, 380.41 529.75 C 384.51 528.70, 386.41 529.26, 389.32 529.11 C 392.23 528.95, 393.13 529.13, 394.96 528.99 C 396.79 528.85, 397.67 528.97, 398.46 528.41 C 399.25 527.84, 399.51 527.01, 398.91 526.16" style="stroke: black; fill: black;"/><path d="M 451.01,672.81 C 452.08 672.05, 452.49 670.54, 454.18 668.11 C 455.87 665.67, 456.57 663.85, 459.45 660.65 C 462.33 657.44, 464.25 655.42, 468.58 652.09 C 472.91 648.76, 475.63 647.20, 481.09 644.00 C 486.54 640.81, 489.60 639.39, 495.87 636.14 C 502.14 632.88, 505.59 631.29, 512.45 627.71 C 519.32 624.13, 523.03 622.30, 530.21 618.25 C 537.39 614.20, 541.25 611.98, 548.36 607.46 C 555.47 602.93, 559.06 600.47, 565.78 595.63 C 572.49 590.80, 575.98 588.19, 581.96 583.29 C 587.94 578.40, 590.86 575.78, 595.68 571.16 C 600.51 566.53, 602.65 564.17, 606.08 560.17 C 609.51 556.16, 611.10 554.42, 612.82 551.14 C 614.54 547.85, 614.96 546.16, 614.67 543.74 C 614.37 541.32, 613.45 540.07, 611.34 539.05 C 609.23 538.02, 607.44 537.56, 604.12 538.61 C 600.80 539.66, 598.80 541.06, 594.75 544.30 C 590.71 547.53, 588.50 549.80, 583.90 554.78 C 579.30 559.77, 576.73 562.66, 571.73 569.24 C 566.73 575.82, 563.98 579.65, 558.89 587.69 C 553.81 595.72, 551.26 600.38, 546.31 609.42 C 541.36 618.46, 538.83 623.49, 534.16 632.88 C 529.49 642.26, 527.05 647.40, 522.95 656.34 C 518.86 665.29, 517.02 670.23, 513.68 677.59 C 510.33 684.95, 508.67 688.26, 506.23 693.13 C 503.78 698.00, 502.70 699.35, 501.45 701.94 C 500.19 704.53, 500.03 705.13, 499.93 706.08 C 499.83 707.03, 500.13 707.25, 500.94 706.69 C 501.75 706.14, 502.49 705.82, 503.99 703.32 C 505.49 700.82, 506.15 699.19, 508.44 694.20 C 510.73 689.21, 512.24 685.80, 515.45 678.37 C 518.66 670.94, 520.46 666.00, 524.49 657.04 C 528.52 648.09, 530.95 642.96, 535.61 633.60 C 540.26 624.24, 542.81 619.21, 547.78 610.23 C 552.75 601.25, 555.32 596.62, 560.45 588.69 C 565.59 580.75, 568.37 576.97, 573.45 570.58 C 578.54 564.18, 581.18 561.36, 585.89 556.70 C 590.59 552.04, 593.00 549.99, 596.96 547.27 C 600.92 544.56, 603.04 544.15, 605.69 543.12 C 608.34 542.08, 609.09 541.95, 610.23 542.11 C 611.38 542.26, 611.54 542.41, 611.41 543.88 C 611.28 545.35, 611.10 546.56, 609.60 549.46 C 608.10 552.37, 607.02 554.39, 603.91 558.40 C 600.81 562.40, 598.71 564.83, 594.05 569.49 C 589.39 574.15, 586.52 576.78, 580.63 581.69 C 574.74 586.60, 571.28 589.21, 564.62 594.03 C 557.95 598.85, 554.38 601.31, 547.30 605.79 C 540.22 610.28, 536.38 612.47, 529.21 616.47 C 522.04 620.47, 518.35 622.27, 511.46 625.78 C 504.57 629.29, 501.13 630.84, 494.79 634.01 C 488.44 637.18, 485.37 638.55, 479.74 641.63 C 474.11 644.71, 471.27 646.18, 466.63 649.42 C 461.98 652.67, 459.82 654.61, 456.54 657.86 C 453.26 661.11, 451.76 662.86, 450.22 665.67 C 448.68 668.48, 448.67 670.47, 448.83 671.90 C 448.99 673.33, 449.94 673.57, 451.01 672.81" style="stroke: black; fill: black;"/><path d="M 492.53,651.70 C 493.61 652.11, 494.68 652.01, 497.25 651.62 C 499.81 651.22, 501.36 650.56, 505.35 649.74 C 509.34 648.92, 511.98 648.30, 517.20 647.51 C 522.42 646.73, 525.50 646.53, 531.44 645.79 C 537.38 645.06, 540.65 644.77, 546.91 643.84 C 553.18 642.91, 556.45 642.40, 562.75 641.14 C 569.06 639.87, 572.29 639.13, 578.43 637.50 C 584.58 635.86, 587.80 634.99, 593.48 632.96 C 599.16 630.93, 601.95 629.62, 606.84 627.35 C 611.73 625.08, 614.11 623.92, 617.93 621.60 C 621.75 619.28, 623.51 618.16, 625.95 615.73 C 628.39 613.30, 629.39 611.89, 630.13 609.45 C 630.86 607.00, 630.80 605.44, 629.63 603.52 C 628.46 601.59, 627.00 600.47, 624.28 599.82 C 621.56 599.16, 619.53 599.19, 616.03 600.25 C 612.53 601.31, 610.48 602.51, 606.76 605.11 C 603.05 607.70, 600.87 609.63, 597.47 613.24 C 594.07 616.85, 592.26 619.09, 589.77 623.15 C 587.28 627.21, 586.08 629.52, 585.03 633.55 C 583.99 637.57, 583.74 639.79, 584.53 643.29 C 585.32 646.78, 586.29 648.60, 588.99 651.03 C 591.70 653.46, 593.77 654.31, 598.06 655.44 C 602.35 656.57, 605.15 656.83, 610.45 656.68 C 615.74 656.53, 618.69 656.02, 624.53 654.69 C 630.36 653.36, 633.55 652.33, 639.62 650.01 C 645.69 647.69, 649.04 646.17, 654.89 643.08 C 660.73 639.98, 663.80 638.03, 668.85 634.53 C 673.89 631.03, 676.37 629.14, 680.10 625.58 C 683.83 622.03, 685.55 620.07, 687.51 616.76 C 689.46 613.45, 689.96 611.74, 689.87 609.02 C 689.79 606.30, 689.15 604.70, 687.07 603.14 C 684.99 601.57, 682.96 600.73, 679.48 601.20 C 675.99 601.67, 673.70 603.07, 669.63 605.48 C 665.56 607.88, 663.18 609.61, 659.13 613.22 C 655.07 616.83, 652.59 619.20, 649.36 623.50 C 646.13 627.80, 644.57 630.41, 643.00 634.72 C 641.43 639.03, 640.78 641.39, 641.52 645.04 C 642.26 648.69, 643.56 650.56, 646.70 652.98 C 649.83 655.41, 652.03 656.22, 657.17 657.16 C 662.32 658.10, 666.33 657.78, 672.43 657.66 C 678.54 657.54, 682.36 657.11, 687.70 656.56 C 693.05 656.01, 696.91 655.70, 699.15 654.90 C 701.38 654.10, 701.22 652.83, 698.88 652.56 C 696.54 652.28, 692.74 653.15, 687.44 653.52 C 682.14 653.88, 678.32 654.31, 672.38 654.36 C 666.45 654.42, 662.49 654.64, 657.78 653.80 C 653.08 652.95, 651.40 652.02, 648.87 650.13 C 646.34 648.24, 645.63 647.18, 645.12 644.35 C 644.61 641.51, 644.92 639.69, 646.31 635.93 C 647.70 632.18, 649.05 629.56, 652.09 625.56 C 655.12 621.57, 657.57 619.24, 661.49 615.95 C 665.41 612.67, 667.92 611.12, 671.68 609.13 C 675.45 607.14, 677.63 606.61, 680.31 606.00 C 683.00 605.39, 683.94 605.50, 685.12 606.09 C 686.29 606.68, 686.37 607.20, 686.21 608.96 C 686.04 610.72, 685.93 611.99, 684.28 614.88 C 682.63 617.77, 681.35 619.92, 677.96 623.41 C 674.56 626.90, 672.15 628.84, 667.29 632.32 C 662.43 635.79, 659.39 637.74, 653.67 640.78 C 647.94 643.81, 644.63 645.30, 638.67 647.50 C 632.72 649.70, 629.56 650.64, 623.90 651.79 C 618.25 652.95, 615.37 653.28, 610.40 653.26 C 605.44 653.24, 602.81 652.77, 599.08 651.71 C 595.34 650.65, 593.84 649.83, 591.72 647.97 C 589.61 646.10, 589.11 645.09, 588.52 642.40 C 587.93 639.71, 587.90 637.97, 588.78 634.51 C 589.67 631.05, 590.65 628.82, 592.95 625.10 C 595.24 621.37, 596.99 619.18, 600.23 615.91 C 603.48 612.64, 605.71 610.86, 609.16 608.74 C 612.61 606.62, 614.61 606.09, 617.49 605.30 C 620.36 604.51, 621.67 604.77, 623.54 604.80 C 625.40 604.83, 626.24 604.79, 626.81 605.43 C 627.39 606.08, 627.20 606.55, 626.43 608.02 C 625.65 609.49, 625.01 610.62, 622.94 612.77 C 620.87 614.91, 619.56 616.35, 616.09 618.74 C 612.61 621.13, 610.27 622.37, 605.57 624.71 C 600.86 627.04, 598.13 628.38, 592.57 630.44 C 587.01 632.50, 583.83 633.38, 577.77 635.02 C 571.71 636.65, 568.50 637.39, 562.25 638.62 C 556.00 639.85, 552.76 640.34, 546.54 641.18 C 540.31 642.02, 537.07 642.27, 531.12 642.82 C 525.16 643.37, 522.06 643.44, 516.76 643.94 C 511.46 644.44, 508.74 644.75, 504.60 645.32 C 500.46 645.88, 498.62 645.92, 496.07 646.77 C 493.52 647.62, 492.55 648.58, 491.84 649.57 C 491.13 650.55, 491.45 651.29, 492.53 651.70" style="stroke: black; fill: black;"/><path d="M 979.20,550.35 C 978.56 549.27, 977.45 548.05, 975.05 547.14 C 972.66 546.24, 971.02 545.78, 967.20 545.85 C 963.39 545.91, 961.13 546.14, 955.98 547.47 C 950.83 548.79, 948.02 549.66, 941.44 552.46 C 934.85 555.26, 930.93 557.00, 923.07 561.46 C 915.22 565.93, 910.74 568.85, 902.16 574.80 C 893.59 580.75, 888.64 584.23, 880.20 591.21 C 871.75 598.19, 867.22 602.15, 859.93 609.69 C 852.65 617.22, 849.10 621.55, 843.77 628.90 C 838.43 636.24, 836.22 639.99, 833.27 646.42 C 830.32 652.85, 829.44 655.87, 829.01 661.03 C 828.59 666.19, 828.94 668.69, 831.13 672.22 C 833.33 675.74, 835.37 677.17, 839.99 678.65 C 844.61 680.13, 847.72 680.21, 854.22 679.63 C 860.72 679.04, 864.51 678.01, 872.48 675.75 C 880.46 673.48, 885.08 671.74, 894.10 668.32 C 903.12 664.89, 908.34 662.79, 917.60 658.64 C 926.86 654.48, 931.69 651.89, 940.39 647.55 C 949.09 643.22, 953.60 640.83, 961.10 636.94 C 968.61 633.05, 972.26 631.10, 977.89 628.09 C 983.52 625.08, 985.98 623.88, 989.25 621.90 C 992.53 619.91, 993.55 619.25, 994.26 618.16 C 994.97 617.08, 994.21 616.35, 992.80 616.48 C 991.39 616.61, 989.99 616.92, 987.22 618.81 C 984.44 620.69, 982.69 622.54, 978.94 625.91 C 975.18 629.27, 972.62 631.62, 968.43 635.63 C 964.25 639.64, 961.88 641.99, 958.00 645.94 C 954.12 649.89, 951.99 651.95, 949.05 655.38 C 946.10 658.81, 944.49 660.35, 943.27 663.10 C 942.06 665.84, 942.24 667.32, 942.96 669.11 C 943.67 670.91, 944.61 671.80, 946.84 672.06 C 949.07 672.33, 950.90 671.95, 954.09 670.46 C 957.28 668.97, 959.07 667.53, 962.81 664.61 C 966.54 661.69, 968.68 659.58, 972.78 655.85 C 976.88 652.11, 979.31 649.87, 983.29 645.92 C 987.27 641.98, 989.34 639.62, 992.68 636.12 C 996.03 632.63, 998.19 630.95, 1000.00 628.44 C 1001.81 625.92, 1002.00 624.42, 1001.72 623.55 C 1001.44 622.68, 1000.17 622.64, 998.60 624.08 C 997.04 625.53, 995.90 627.40, 993.88 630.77 C 991.87 634.14, 990.38 636.81, 988.53 640.92 C 986.68 645.04, 985.67 647.46, 984.64 651.33 C 983.61 655.20, 982.98 657.14, 983.39 660.29 C 983.80 663.44, 984.54 665.23, 986.69 667.08 C 988.83 668.94, 990.59 669.67, 994.12 669.58 C 997.65 669.49, 999.71 668.59, 1004.35 666.63 C 1008.99 664.67, 1011.64 663.29, 1017.32 659.79 C 1023.00 656.30, 1026.25 654.13, 1032.74 649.15 C 1039.23 644.16, 1042.83 640.98, 1049.75 634.86 C 1056.67 628.75, 1060.54 625.18, 1067.34 618.58 C 1074.14 611.98, 1077.66 608.32, 1083.75 601.87 C 1089.85 595.42, 1092.95 592.03, 1097.82 586.34 C 1102.69 580.65, 1105.17 577.63, 1108.11 573.43 C 1111.05 569.22, 1112.24 567.42, 1112.54 565.32 C 1112.85 563.21, 1111.80 562.12, 1109.64 562.91 C 1107.49 563.70, 1105.74 565.33, 1101.76 569.27 C 1097.79 573.21, 1094.91 576.32, 1089.76 582.60 C 1084.62 588.89, 1081.36 593.27, 1076.04 600.71 C 1070.71 608.15, 1067.53 612.47, 1063.14 619.81 C 1058.76 627.14, 1056.75 631.01, 1054.10 637.41 C 1051.46 643.81, 1050.60 646.90, 1049.92 651.80 C 1049.24 656.70, 1049.29 658.79, 1050.71 661.92 C 1052.12 665.05, 1053.81 666.35, 1057.00 667.45 C 1060.19 668.55, 1062.43 668.20, 1066.65 667.41 C 1070.87 666.62, 1073.30 665.50, 1078.11 663.48 C 1082.91 661.47, 1085.76 660.04, 1090.68 657.35 C 1095.59 654.65, 1098.28 652.85, 1102.67 650.02 C 1107.06 647.20, 1109.13 645.60, 1112.63 643.21 C 1116.12 640.82, 1117.93 639.92, 1120.13 638.08 C 1122.34 636.25, 1122.76 635.20, 1123.64 634.03 C 1124.53 632.87, 1124.34 632.47, 1124.57 632.24 C 1124.79 632.01, 1124.33 632.33, 1124.78 632.88 C 1125.23 633.44, 1125.22 634.40, 1126.82 635.02 C 1128.41 635.64, 1129.67 636.28, 1132.76 635.97 C 1135.84 635.66, 1137.97 634.70, 1142.25 633.48 C 1146.53 632.26, 1149.07 631.34, 1154.16 629.85 C 1159.24 628.36, 1162.14 627.50, 1167.67 626.05 C 1173.19 624.61, 1176.50 623.75, 1181.78 622.62 C 1187.05 621.49, 1189.66 621.03, 1194.05 620.39 C 1198.45 619.74, 1200.65 619.75, 1203.77 619.39 C 1206.88 619.02, 1208.16 618.96, 1209.65 618.57 C 1211.13 618.18, 1211.43 617.77, 1211.20 617.44 C 1210.97 617.11, 1210.18 616.68, 1208.48 616.93 C 1206.79 617.18, 1205.48 617.40, 1202.75 618.69 C 1200.01 619.97, 1198.39 621.30, 1194.82 623.35 C 1191.26 625.40, 1188.99 626.52, 1184.91 628.95 C 1180.83 631.39, 1178.45 632.73, 1174.42 635.51 C 1170.39 638.30, 1168.13 639.87, 1164.74 642.86 C 1161.36 645.84, 1159.70 647.44, 1157.50 650.42 C 1155.30 653.40, 1154.38 655.09, 1153.75 657.75 C 1153.13 660.41, 1153.37 661.87, 1154.37 663.72 C 1155.37 665.57, 1156.37 666.39, 1158.74 667.00 C 1161.11 667.61, 1162.90 667.58, 1166.21 666.76 C 1169.53 665.95, 1171.47 664.79, 1175.32 662.91 C 1179.17 661.03, 1181.28 659.88, 1185.46 657.35 C 1189.63 654.82, 1192.02 653.23, 1196.19 650.27 C 1200.37 647.30, 1202.67 645.38, 1206.34 642.54 C 1210.01 639.71, 1212.27 638.23, 1214.56 636.09 C 1216.86 633.95, 1217.59 632.67, 1217.81 631.84 C 1218.02 631.01, 1217.02 630.86, 1215.64 631.95 C 1214.25 633.04, 1212.76 634.56, 1210.88 637.29 C 1208.99 640.03, 1207.73 642.25, 1206.21 645.60 C 1204.70 648.96, 1203.57 650.97, 1203.29 654.06 C 1203.01 657.16, 1203.41 659.02, 1204.82 661.08 C 1206.24 663.13, 1207.59 663.97, 1210.37 664.33 C 1213.16 664.70, 1214.90 664.19, 1218.77 662.92 C 1222.63 661.65, 1224.97 660.47, 1229.70 657.99 C 1234.44 655.51, 1237.30 653.64, 1242.46 650.52 C 1247.61 647.40, 1250.37 645.51, 1255.48 642.39 C 1260.60 639.27, 1263.54 637.42, 1268.04 634.92 C 1272.53 632.41, 1275.25 631.29, 1277.95 629.88 C 1280.65 628.48, 1281.15 627.82, 1281.53 627.88 C 1281.90 627.93, 1281.00 628.43, 1279.84 630.16 C 1278.68 631.89, 1277.64 633.63, 1275.72 636.54 C 1273.81 639.45, 1272.39 641.63, 1270.29 644.73 C 1268.19 647.83, 1266.41 649.42, 1265.21 652.04 C 1264.01 654.65, 1263.82 656.18, 1264.30 657.81 C 1264.78 659.44, 1265.62 660.17, 1267.61 660.18 C 1269.60 660.18, 1270.96 659.62, 1274.25 657.83 C 1277.53 656.04, 1279.50 654.23, 1284.04 651.24 C 1288.58 648.26, 1291.51 646.12, 1296.95 642.92 C 1302.38 639.72, 1305.72 637.82, 1311.20 635.24 C 1316.68 632.66, 1319.70 631.35, 1324.35 630.02 C 1329.00 628.68, 1331.37 628.59, 1334.46 628.57 C 1337.55 628.56, 1338.47 628.93, 1339.80 629.95 C 1341.13 630.98, 1341.09 631.73, 1341.10 633.68 C 1341.12 635.64, 1340.65 637.02, 1339.87 639.74 C 1339.10 642.45, 1337.88 644.19, 1337.23 647.26 C 1336.59 650.33, 1336.14 652.36, 1336.64 655.10 C 1337.13 657.85, 1337.64 659.40, 1339.69 661.00 C 1341.74 662.61, 1343.22 663.19, 1346.89 663.14 C 1350.56 663.09, 1352.99 662.35, 1358.02 660.74 C 1363.06 659.14, 1366.10 657.74, 1372.07 655.13 C 1378.05 652.53, 1381.54 650.86, 1387.89 647.71 C 1394.24 644.57, 1397.72 642.62, 1403.83 639.41 C 1409.94 636.20, 1413.08 634.35, 1418.45 631.65 C 1423.81 628.96, 1426.58 627.77, 1430.66 625.92 C 1434.74 624.07, 1436.75 623.77, 1438.83 622.39 C 1440.91 621.01, 1441.45 619.90, 1441.07 619.01 C 1440.69 618.13, 1439.41 617.41, 1436.92 617.96 C 1434.43 618.51, 1432.49 619.65, 1428.63 621.76 C 1424.76 623.87, 1422.26 625.49, 1417.60 628.50 C 1412.93 631.50, 1409.96 633.46, 1405.30 636.78 C 1400.64 640.11, 1398.08 641.92, 1394.30 645.12 C 1390.53 648.31, 1388.65 649.93, 1386.43 652.76 C 1384.21 655.59, 1383.38 657.04, 1383.18 659.27 C 1382.98 661.50, 1383.64 662.70, 1385.43 663.91 C 1387.22 665.12, 1388.92 665.70, 1392.14 665.32 C 1395.36 664.93, 1397.31 663.75, 1401.52 661.98 C 1405.72 660.21, 1408.28 659.03, 1413.17 656.45 C 1418.06 653.87, 1420.90 652.18, 1425.97 649.08 C 1431.03 645.97, 1433.86 644.04, 1438.50 640.93 C 1443.13 637.81, 1446.01 636.07, 1449.14 633.51 C 1452.28 630.95, 1453.49 629.49, 1454.16 628.13 C 1454.83 626.77, 1453.96 626.18, 1452.50 626.70 C 1451.04 627.23, 1449.19 628.31, 1446.85 630.76 C 1444.51 633.21, 1442.70 635.40, 1440.79 638.94 C 1438.87 642.48, 1437.71 644.84, 1437.27 648.47 C 1436.83 652.10, 1436.85 654.35, 1438.57 657.11 C 1440.29 659.88, 1442.11 660.98, 1445.87 662.30 C 1449.63 663.62, 1452.05 663.78, 1457.38 663.71 C 1462.71 663.64, 1466.10 663.12, 1472.52 661.96 C 1478.93 660.81, 1482.71 659.85, 1489.45 657.95 C 1496.19 656.06, 1499.83 654.72, 1506.23 652.49 C 1512.62 650.26, 1516.31 649.00, 1521.42 646.81 C 1526.52 644.62, 1528.68 643.47, 1531.76 641.54 C 1534.84 639.62, 1535.99 638.31, 1536.82 637.17 C 1537.65 636.03, 1537.22 635.48, 1535.89 635.83 C 1534.57 636.17, 1533.34 637.21, 1530.21 638.88 C 1527.08 640.54, 1525.22 641.93, 1520.25 644.16 C 1515.29 646.40, 1511.67 647.81, 1505.37 650.07 C 1499.07 652.32, 1495.43 653.65, 1488.76 655.46 C 1482.10 657.26, 1478.31 658.13, 1472.04 659.09 C 1465.76 660.05, 1462.36 660.38, 1457.39 660.27 C 1452.42 660.16, 1450.22 659.60, 1447.19 658.54 C 1444.16 657.47, 1443.24 656.76, 1442.22 654.93 C 1441.21 653.11, 1441.36 651.99, 1442.11 649.40 C 1442.86 646.80, 1444.08 644.95, 1445.97 641.96 C 1447.85 638.97, 1449.82 637.17, 1451.54 634.45 C 1453.26 631.72, 1454.36 629.97, 1454.59 628.32 C 1454.81 626.68, 1454.24 625.81, 1452.66 626.22 C 1451.08 626.63, 1449.88 627.96, 1446.68 630.38 C 1443.49 632.79, 1441.14 635.09, 1436.68 638.31 C 1432.21 641.52, 1429.38 643.43, 1424.37 646.44 C 1419.36 649.45, 1416.50 651.05, 1411.62 653.34 C 1406.74 655.64, 1404.06 656.55, 1399.98 657.90 C 1395.90 659.25, 1393.89 659.44, 1391.23 660.08 C 1388.56 660.73, 1387.66 661.13, 1386.66 661.11 C 1385.66 661.08, 1385.63 661.13, 1386.22 659.98 C 1386.81 658.82, 1387.54 657.80, 1389.61 655.34 C 1391.67 652.88, 1393.03 650.86, 1396.55 647.69 C 1400.07 644.51, 1402.59 642.66, 1407.19 639.46 C 1411.79 636.26, 1414.83 634.40, 1419.54 631.68 C 1424.25 628.96, 1426.91 627.74, 1430.75 625.86 C 1434.59 623.97, 1436.71 623.61, 1438.73 622.25 C 1440.75 620.90, 1441.17 619.74, 1440.86 619.08 C 1440.54 618.42, 1439.48 618.18, 1437.15 618.96 C 1434.82 619.73, 1433.21 620.89, 1429.22 622.95 C 1425.23 625.01, 1422.52 626.42, 1417.21 629.28 C 1411.90 632.13, 1408.76 633.99, 1402.67 637.22 C 1396.59 640.45, 1393.12 642.37, 1386.77 645.41 C 1380.42 648.45, 1376.89 650.04, 1370.94 652.40 C 1364.98 654.76, 1361.85 655.97, 1357.01 657.21 C 1352.17 658.46, 1349.75 658.44, 1346.74 658.60 C 1343.73 658.77, 1342.99 658.79, 1341.96 658.04 C 1340.93 657.29, 1341.33 656.70, 1341.58 654.84 C 1341.83 652.98, 1342.40 651.51, 1343.19 648.73 C 1343.99 645.95, 1345.10 644.09, 1345.57 640.94 C 1346.03 637.79, 1346.27 635.75, 1345.54 632.99 C 1344.81 630.22, 1344.15 628.73, 1341.93 627.10 C 1339.72 625.48, 1338.16 624.87, 1334.46 624.85 C 1330.76 624.83, 1328.34 625.46, 1323.44 627.02 C 1318.54 628.57, 1315.56 629.97, 1309.96 632.62 C 1304.35 635.26, 1301.00 637.16, 1295.42 640.23 C 1289.83 643.30, 1286.76 645.30, 1282.04 647.97 C 1277.32 650.63, 1274.90 651.74, 1271.83 653.54 C 1268.76 655.34, 1267.74 656.07, 1266.67 656.97 C 1265.61 657.87, 1265.82 658.42, 1266.52 658.04 C 1267.21 657.67, 1268.45 657.13, 1270.13 655.09 C 1271.82 653.05, 1272.86 650.99, 1274.94 647.86 C 1277.02 644.72, 1278.73 642.68, 1280.53 639.43 C 1282.32 636.18, 1283.52 634.23, 1283.91 631.61 C 1284.30 628.98, 1283.97 627.38, 1282.47 626.31 C 1280.96 625.23, 1279.58 625.08, 1276.37 626.24 C 1273.15 627.39, 1270.88 629.36, 1266.39 632.09 C 1261.91 634.82, 1259.04 636.73, 1253.94 639.88 C 1248.84 643.04, 1246.05 644.89, 1240.88 647.84 C 1235.71 650.80, 1232.77 652.53, 1228.08 654.68 C 1223.38 656.84, 1220.91 657.58, 1217.42 658.63 C 1213.92 659.67, 1212.51 659.78, 1210.60 659.91 C 1208.68 660.04, 1208.22 660.22, 1207.84 659.27 C 1207.46 658.32, 1207.89 657.35, 1208.69 655.16 C 1209.48 652.97, 1210.31 651.25, 1211.82 648.31 C 1213.34 645.36, 1214.87 643.38, 1216.28 640.43 C 1217.70 637.49, 1218.71 635.62, 1218.90 633.59 C 1219.09 631.55, 1218.68 630.48, 1217.23 630.26 C 1215.78 630.04, 1214.31 630.62, 1211.65 632.49 C 1209.00 634.36, 1207.45 636.62, 1203.96 639.60 C 1200.46 642.58, 1198.24 644.50, 1194.16 647.40 C 1190.08 650.29, 1187.70 651.81, 1183.57 654.08 C 1179.43 656.35, 1177.24 657.29, 1173.49 658.74 C 1169.74 660.20, 1167.67 660.58, 1164.81 661.37 C 1161.95 662.15, 1160.72 662.45, 1159.19 662.66 C 1157.67 662.86, 1157.41 663.10, 1157.18 662.38 C 1156.95 661.66, 1157.27 660.95, 1158.03 659.06 C 1158.80 657.17, 1159.15 655.60, 1161.00 652.92 C 1162.84 650.24, 1164.17 648.52, 1167.26 645.64 C 1170.36 642.77, 1172.57 641.18, 1176.48 638.53 C 1180.40 635.88, 1182.74 634.56, 1186.84 632.38 C 1190.94 630.21, 1193.25 629.25, 1196.98 627.66 C 1200.70 626.07, 1202.73 625.75, 1205.47 624.43 C 1208.22 623.12, 1209.33 622.48, 1210.70 621.09 C 1212.08 619.71, 1212.55 618.70, 1212.36 617.50 C 1212.17 616.29, 1211.58 615.55, 1209.76 615.06 C 1207.94 614.57, 1206.52 614.65, 1203.26 615.03 C 1200.00 615.41, 1197.88 616.06, 1193.45 616.96 C 1189.02 617.87, 1186.41 618.35, 1181.10 619.55 C 1175.79 620.76, 1172.46 621.62, 1166.89 622.99 C 1161.32 624.36, 1158.37 625.19, 1153.25 626.39 C 1148.12 627.59, 1145.49 628.36, 1141.27 628.97 C 1137.06 629.58, 1134.89 629.23, 1132.17 629.45 C 1129.44 629.67, 1128.88 629.93, 1127.64 630.07 C 1126.41 630.22, 1126.77 630.15, 1125.98 630.16 C 1125.20 630.17, 1124.67 629.88, 1123.71 630.12 C 1122.76 630.37, 1122.52 630.53, 1121.21 631.40 C 1119.89 632.27, 1119.29 632.69, 1117.14 634.46 C 1114.98 636.22, 1113.69 637.67, 1110.44 640.23 C 1107.18 642.79, 1105.13 644.42, 1100.86 647.27 C 1096.60 650.11, 1093.92 651.86, 1089.10 654.44 C 1084.28 657.01, 1081.39 658.32, 1076.75 660.14 C 1072.11 661.95, 1069.64 662.81, 1065.91 663.53 C 1062.19 664.25, 1060.55 664.34, 1058.12 663.74 C 1055.69 663.14, 1054.86 662.83, 1053.76 660.51 C 1052.66 658.19, 1052.12 656.59, 1052.61 652.14 C 1053.09 647.68, 1053.72 644.50, 1056.17 638.25 C 1058.63 631.99, 1060.58 628.10, 1064.89 620.85 C 1069.21 613.59, 1072.39 609.28, 1077.77 601.97 C 1083.15 594.67, 1086.54 590.40, 1091.81 584.32 C 1097.07 578.25, 1100.22 575.43, 1104.07 571.60 C 1107.93 567.76, 1109.82 566.57, 1111.09 565.15 C 1112.36 563.72, 1111.47 563.14, 1110.42 564.47 C 1109.36 565.81, 1108.66 567.73, 1105.81 571.83 C 1102.97 575.93, 1100.87 579.22, 1096.19 584.97 C 1091.51 590.73, 1088.42 594.13, 1082.40 600.59 C 1076.37 607.05, 1072.85 610.70, 1066.07 617.27 C 1059.29 623.83, 1055.41 627.38, 1048.47 633.40 C 1041.54 639.42, 1037.91 642.56, 1031.40 647.36 C 1024.88 652.16, 1021.58 654.21, 1015.91 657.39 C 1010.23 660.57, 1007.44 661.72, 1003.04 663.27 C 998.65 664.83, 996.70 664.97, 993.93 665.15 C 991.16 665.34, 990.38 665.26, 989.19 664.21 C 988.00 663.16, 988.01 662.24, 987.97 659.91 C 987.92 657.57, 987.96 655.92, 988.96 652.54 C 989.96 649.16, 991.05 646.86, 992.97 643.03 C 994.89 639.20, 996.73 636.79, 998.54 633.40 C 1000.35 630.01, 1001.53 628.18, 1002.02 626.07 C 1002.52 623.95, 1002.09 622.92, 1001.02 622.83 C 999.95 622.73, 998.85 623.41, 996.66 625.60 C 994.47 627.78, 993.20 630.14, 990.07 633.74 C 986.94 637.35, 984.93 639.73, 981.01 643.63 C 977.10 647.53, 974.64 649.74, 970.50 653.25 C 966.36 656.76, 964.08 658.69, 960.33 661.18 C 956.57 663.66, 954.51 664.26, 951.75 665.70 C 948.99 667.13, 947.80 667.78, 946.52 668.36 C 945.24 668.93, 945.20 669.20, 945.34 668.55 C 945.48 667.90, 945.93 667.29, 947.22 665.11 C 948.52 662.93, 949.20 661.02, 951.81 657.64 C 954.43 654.26, 956.52 652.10, 960.31 648.20 C 964.10 644.30, 966.47 641.93, 970.75 638.14 C 975.03 634.36, 977.77 632.28, 981.72 629.26 C 985.66 626.24, 987.97 625.20, 990.47 623.03 C 992.96 620.87, 993.65 619.72, 994.21 618.42 C 994.77 617.12, 994.59 616.39, 993.27 616.53 C 991.95 616.67, 990.91 617.21, 987.61 619.12 C 984.30 621.03, 982.24 622.86, 976.77 626.09 C 971.29 629.32, 967.66 631.29, 960.23 635.28 C 952.80 639.26, 948.28 641.66, 939.62 646.02 C 930.95 650.37, 926.13 652.95, 916.89 657.06 C 907.66 661.16, 902.44 663.24, 893.44 666.55 C 884.44 669.86, 879.78 671.53, 871.90 673.62 C 864.01 675.71, 860.21 676.55, 854.01 677.00 C 847.81 677.44, 844.97 677.10, 840.88 675.84 C 836.79 674.58, 835.44 673.61, 833.56 670.68 C 831.68 667.76, 831.17 665.90, 831.48 661.21 C 831.79 656.53, 832.38 653.51, 835.12 647.25 C 837.86 640.99, 839.98 637.20, 845.17 629.91 C 850.37 622.62, 853.88 618.29, 861.08 610.79 C 868.29 603.30, 872.80 599.36, 881.21 592.44 C 889.62 585.53, 894.57 582.07, 903.14 576.22 C 911.71 570.38, 916.21 567.51, 924.06 563.23 C 931.91 558.95, 935.86 557.30, 942.39 554.81 C 948.91 552.33, 951.76 551.66, 956.70 550.80 C 961.65 549.94, 963.70 550.28, 967.10 550.50 C 970.50 550.71, 971.48 551.48, 973.71 551.89 C 975.93 552.30, 977.12 552.85, 978.22 552.55 C 979.31 552.24, 979.83 551.44, 979.20 550.35" style="stroke: black; fill: black;"/></svg>